1.8Hz3min_grf.mot
version=1
nRows=17
nColumns 19
inDegrees=yes
endheader
time	1_ground_force_vx	1_ground_force_vy	1_ground_force_vz	1_ground_force_px	1_ground_force_py	1_ground_force_pz	1_ground_torque_x	1_ground_torque_y	1_ground_torque_z	2_ground_force_vx	2_ground_force_vy	2_ground_force_vz	2_ground_force_px	2_ground_force_py	2_ground_force_pz	2_ground_torque_x	2_ground_torque_y	2_ground_torque_z
            0.005000	            4.937186	          519.681658	          -75.970393	           -0.243741	            0.005958	           -0.344001	            0.017565	            1.848860	           -0.270278	          -15.186725	          790.041583	           80.866801	           -0.225316	            0.005657	           -0.694111	           -0.004695	            0.244246	            0.025000
            0.005500	            5.029968	          516.796442	          -75.753712	           -0.243470	            0.005958	           -0.343970	            0.017754	            1.824081	           -0.267380	          -14.945535	          788.019833	           80.014768	           -0.225207	            0.005658	           -0.694277	           -0.005278	            0.278288	            0.028257
            0.006000	            5.077294	          515.532459	          -75.254818	           -0.243379	            0.005960	           -0.344367	            0.016903	            1.716325	           -0.250540	          -14.277715	          784.707881	           79.908806	           -0.225019	            0.005658	           -0.694069	           -0.003008	            0.165307	            0.016834
            0.006500	            5.399907	          513.006578	          -74.762032	           -0.243057	            0.005959	           -0.344176	            0.018626	            1.769549	           -0.257882	          -13.942742	          782.685800	           79.244445	           -0.224978	            0.005659	           -0.694164	           -0.003260	            0.182989	            0.018527
            0.007000	            6.088891	          510.661715	          -74.406940	           -0.243283	            0.005959	           -0.344070	            0.021876	            1.834714	           -0.267330	          -14.164029	          779.004696	           78.480554	           -0.224872	            0.005658	           -0.693963	           -0.003494	            0.192152	            0.019358
            0.007500	            5.769278	          509.217758	          -73.999613	           -0.242990	            0.005959	           -0.344218	            0.020067	            1.771214	           -0.257393	          -13.778822	          776.061517	           77.953665	           -0.224746	            0.005658	           -0.693820	           -0.003282	            0.184854	            0.018568
            0.008000	            6.229292	          506.151530	          -73.601191	           -0.243009	            0.005959	           -0.344238	            0.021817	            1.772722	           -0.257778	          -13.491343	          774.223179	           77.336917	           -0.224554	            0.005660	           -0.693947	           -0.002682	            0.153938	            0.015377
            0.008500	            6.276683	          504.527016	          -73.103843	           -0.242929	            0.005959	           -0.344222	            0.021967	            1.765725	           -0.255846	          -13.152404	          771.096298	           76.621678	           -0.224357	            0.005660	           -0.693893	           -0.003460	            0.202826	            0.020154
            0.009000	            6.599297	          502.001196	          -72.611057	           -0.243017	            0.005959	           -0.344137	            0.023604	            1.795516	           -0.259709	          -12.765909	          767.785173	           75.999634	           -0.224269	            0.005660	           -0.693753	           -0.002709	            0.162949	            0.016130
            0.009500	            6.875724	          500.737392	          -72.158584	           -0.242781	            0.005957	           -0.343724	            0.023506	            1.711883	           -0.246690	          -12.287729	          765.027036	           75.332586	           -0.224183	            0.005660	           -0.693689	           -0.001591	            0.099046	            0.009753
            0.010000	            7.198550	          497.670609	          -71.622250	           -0.242546	            0.005959	           -0.344183	            0.024896	            1.721173	           -0.247703	          -12.046456	          763.004617	           74.668265	           -0.224137	            0.005661	           -0.693785	           -0.001597	            0.101173	            0.009901
            0.010500	            7.062228	          496.046588	          -71.262018	           -0.242781	            0.005959	           -0.344254	            0.024402	            1.714014	           -0.246235	          -11.659297	          759.509289	           74.045548	           -0.223883	            0.005660	           -0.693463	           -0.002445	            0.159264	            0.015527
            0.011000	            7.567597	          493.161452	          -71.046361	           -0.242510	            0.005961	           -0.344561	            0.027116	            1.767079	           -0.254571	          -11.275439	          756.934559	           73.473053	           -0.223795	            0.005661	           -0.693481	           -0.001188	            0.079766	            0.007743
            0.011500	            7.707911	          490.994162	          -70.093008	           -0.242344	            0.005959	           -0.344186	            0.026108	            1.663066	           -0.237415	          -11.030138	          753.806839	           72.898646	           -0.223762	            0.005660	           -0.693273	           -0.001368	            0.093508	            0.009043
            0.012000	            7.939001	          488.828462	          -69.506714	           -0.242213	            0.005960	           -0.344259	            0.026961	            1.660064	           -0.236045	          -10.600802	          751.601016	           72.233589	           -0.223518	            0.005662	           -0.693536	           -0.002082	            0.147583	            0.014184
            0.012500	            8.077641	          486.483886	          -69.241976	           -0.242029	            0.005960	           -0.344396	            0.026606	            1.602395	           -0.228071	          -10.403159	          748.658499	           71.331370	           -0.223409	            0.005661	           -0.693285	           -0.002233	            0.160720	            0.015313
            0.013000	            8.445918	          484.318802	          -68.793595	           -0.242275	            0.005961	           -0.344592	            0.029908	            1.715042	           -0.243608	           -9.735647	          745.349058	           70.521478	           -0.223314	            0.005662	           -0.693341	           -0.001502	            0.114965	            0.010877
